<svg width="48" height="96" version="1.1" xmlns="http://www.w3.org/2000/svg" desc="Created with imagetracer.js version 1.2.6" ><path fill="rgb(0,0,0)" stroke="rgb(0,0,0)" stroke-width="1" opacity="0" d="M 0 0 L 48 0 L 48 45 L 0 45 L 0 0 Z " /><path fill="rgb(64,63,63)" stroke="rgb(64,63,63)" stroke-width="1" opacity="1" d="M 11 68 L 15.5 69 L 19.5 69 Q 22.1 68.2 21 71.5 L 21.5 73 Q 15.3 74.8 13.5 72 L 11 73 L 11 68 Z " /><path fill="rgb(64,63,63)" stroke="rgb(64,63,63)" stroke-width="1" opacity="1" d="M 29 68 L 33.5 69 L 35.5 69 L 38 69.5 L 36.5 73 L 35.5 71 L 35 73 L 31.5 72 L 26.5 73 L 24 72.5 L 25.5 69 L 28 69.5 L 28.5 71 L 29 68 Z " /><path fill="rgb(0,0,0)" stroke="rgb(0,0,0)" stroke-width="1" opacity="1" d="M 0 45 L 48 45 L 48 96 L 0 96 L 0 45 Z M 11 68 L 11 73 L 14 72 Q 15 75 22 73 L 21 72 Q 22 68 20 69 L 16 69 L 11 68 Z M 29 68 L 29 71 L 28 70 L 26 69 L 24 73 L 27 73 L 32 72 L 35 73 L 36 71 L 37 73 L 38 70 L 36 69 L 34 69 L 29 68 Z " /></svg>